<?xml version="1.0" standalone="no"?>
<!DOCTYPE svg PUBLIC "-//W3C//DTD SVG 20010904//EN"
 "http://www.w3.org/TR/2001/REC-SVG-20010904/DTD/svg10.dtd">
<svg version="1.0" xmlns="http://www.w3.org/2000/svg"
 width="512.000000pt" height="512.000000pt" viewBox="0 0 512.000000 512.000000"
 preserveAspectRatio="xMidYMid meet">
<metadata>
Created by potrace 1.11, written by Peter Selinger 2001-2013
</metadata>
<g transform="translate(0.000000,512.000000) scale(0.100000,-0.100000)"
fill="#000000" stroke="none">
<path d="M2245 3738 c-231 -26 -325 -79 -325 -184 0 -26 -8 -46 -31 -71 -27
-31 -30 -40 -24 -77 4 -27 16 -50 35 -66 22 -20 30 -39 38 -95 32 -201 92
-285 227 -315 28 -6 120 -11 206 -11 251 0 382 40 449 139 15 22 53 100 85
174 75 170 88 188 127 188 17 0 39 -7 49 -16 9 -8 43 -75 74 -148 78 -186 109
-234 172 -272 80 -48 151 -59 373 -59 162 0 204 3 247 18 97 34 156 125 183
287 11 61 20 82 47 113 42 47 46 102 9 136 -17 16 -26 38 -31 77 -8 67 -46
115 -108 138 -116 43 -448 70 -584 47 -86 -15 -178 -58 -290 -135 -76 -52 -87
-56 -138 -56 -50 0 -62 5 -112 41 -88 65 -215 128 -290 144 -75 16 -261 18
-388 3z m340 -58 c137 -20 284 -112 305 -192 18 -66 -23 -218 -98 -361 -52
-100 -115 -131 -297 -147 -108 -9 -312 4 -357 23 -41 18 -83 61 -102 107 -41
99 -70 381 -47 453 7 20 25 46 41 57 72 51 382 84 555 60z m1301 -15 c191 -34
210 -57 201 -260 -12 -282 -61 -388 -194 -416 -85 -18 -323 -15 -408 5 -150
35 -183 69 -256 255 -32 81 -43 124 -47 182 -4 76 -4 76 32 116 47 53 164 114
246 130 80 16 303 9 426 -12z"/>
<path d="M2390 3531 c-60 -31 -80 -80 -80 -194 0 -61 5 -110 14 -130 48 -113
209 -121 260 -12 12 24 16 63 16 142 0 90 -3 113 -20 141 -41 67 -121 90 -190
53z"/>
<path d="M3532 3533 c-60 -29 -77 -65 -80 -177 -5 -116 6 -161 47 -200 57 -55
140 -51 200 8 l36 36 3 123 c3 114 2 124 -20 156 -44 65 -120 87 -186 54z"/>
<path d="M2848 2911 c-28 -25 -33 -36 -33 -76 0 -40 5 -51 33 -76 l32 -29 148
0 c124 0 150 3 168 18 44 35 56 90 30 141 -23 43 -54 51 -206 51 l-140 0 -32
-29z"/>
<path d="M3428 2410 c-83 -44 -165 -60 -334 -67 -219 -8 -401 19 -476 71 -62
44 -148 -1 -148 -77 0 -104 175 -171 480 -183 315 -13 553 40 618 136 28 41
24 83 -11 117 -36 36 -66 37 -129 3z"/>
<path d="M1300 1970 c-685 -3 -1004 -9 -1025 -16 -117 -43 -193 -109 -215
-190 -25 -89 -9 -190 60 -374 34 -91 143 -392 241 -669 99 -277 191 -523 205
-547 36 -62 116 -129 180 -153 54 -21 67 -21 1514 -21 803 0 1460 4 1460 9 0
8 -266 762 -488 1382 -60 168 -122 330 -138 360 -40 76 -147 179 -209 203 -61
24 -149 25 -1585 16z m1507 -186 c40 -30 57 -85 39 -128 -30 -71 70 -66 -1244
-66 l-1184 0 -29 29 c-52 52 -32 154 35 181 11 5 546 8 1188 7 l1167 -2 28
-21z m-997 -544 c64 -32 152 -129 194 -213 50 -102 69 -192 63 -301 -4 -75
-10 -98 -38 -154 -45 -88 -95 -124 -179 -130 -53 -4 -69 0 -125 27 -84 42
-157 122 -206 226 -47 103 -63 170 -61 270 1 133 57 244 145 289 44 23 147 16
207 -14z"/>
<path d="M3647 1521 c-9 -43 -81 -110 -166 -155 -39 -20 -71 -38 -71 -40 0 -8
287 -817 357 -1003 l16 -43 413 0 c267 0 423 -4 441 -11 102 -38 129 -164 53
-241 l-28 -28 174 0 174 0 0 395 c0 434 -5 482 -61 623 -97 243 -292 418 -556
499 -86 26 -95 27 -414 31 l-326 4 -6 -31z"/>
</g>
</svg>
